<svg viewBox="0 0 203 27" version="1.1" xmlns="http://www.w3.org/2000/svg" xmlns:xlink="http://www.w3.org/1999/xlink"><path id="Path" d="M114.999427,3 C108.469663,3 104,7.30942105 104,13.3883684 L104,13.7199474 C104,19.7988947 108.468517,24 114.999427,24 C121.530337,24 126,19.6894737 126,13.6105263 L126,13.2789474 C125.998854,7.2 121.530337,3 114.999427,3" class="point"></path> <path id="Shape" d="M137.025,5.34375 C134.769444,5.34375 133.077778,6.46875 132.062778,7.707375 L132.062778,5.90625 C132.062778,5.79375 131.95,5.68125 131.837222,5.68125 L127.326111,5.68125 C127.213333,5.68125 127.101683,5.794875 127.101683,5.90625 L127.101683,26.15625 C127.101683,26.269875 127.214461,26.49375 127.326111,26.49375 L131.837222,26.49375 C131.951128,26.49375 132.062778,26.38125 132.062778,26.15625 L132.062778,20.53125 C133.190556,21.88125 134.882222,22.66875 137.025,22.66875 C141.536111,22.66875 144.468333,19.29375 144.468333,14.00625 L144.468333,13.78125 C144.355556,8.71875 141.423333,5.34375 137.025,5.34375 Z M139.280556,14.23125 C139.280556,16.367625 138.602761,18.84375 135.671667,18.84375 C133.303333,18.84375 131.95,17.269875 131.95,14.23125 L131.95,14.00625 C131.95,11.08125 133.303333,9.39375 135.671667,9.39375 C137.927222,9.39375 139.280556,11.08125 139.280556,14.00625 L139.280556,14.23125 Z" class="letter"></path> <path id="Shape" d="M28.0816667,5.34375 C23.0066667,5.34375 19.3989056,8.94375 19.3989056,14.11875 L19.3989056,14.34375 C19.3989056,19.519875 22.8950167,22.894875 28.1955722,22.894875 C32.8194611,22.894875 35.7516833,20.757375 36.3155722,17.15625 C36.3155722,17.04375 36.3155722,17.04375 36.2016667,16.93125 C36.2016667,16.81875 36.0888889,16.81875 35.9761111,16.81875 L31.6905556,16.81875 C31.5777778,16.81875 31.465,16.93125 31.465,17.04375 C31.2405722,18.39375 30.1127944,19.06875 28.3072222,19.06875 C26.0516667,19.06875 24.6983333,17.71875 24.5855556,15.35625 L36.0888889,15.35625 C36.2016667,15.35625 36.3144444,15.242625 36.3144444,15.13125 L36.3144444,13.89375 C36.3144444,7.59375 32.0288889,5.34375 28.0816667,5.34375 Z M24.36,12.09375 C24.8111111,10.18125 25.9388889,9.05625 27.7433333,9.05625 C29.7733333,9.05625 30.7883333,10.06875 31.0138889,12.09375 L24.36,12.09375 Z" class="letter"></path> <path id="Path" d="M79.3955556,5.45625 C77.14,5.45625 75.5622389,6.35625 74.4344611,8.04375 L74.4344611,5.90625 C74.4344611,5.79375 74.3205556,5.68125 74.2089056,5.68125 L69.6977944,5.68125 C69.5850167,5.68125 69.4722389,5.794875 69.4722389,5.90625 L69.4722389,22.21875 C69.4722389,22.332375 69.5861444,22.44375 69.6977944,22.44375 L74.2089056,22.44375 C74.3216833,22.44375 74.4344611,22.33125 74.4344611,22.21875 L74.4344611,14.00625 C74.4344611,11.30625 75.9005722,10.06875 79.2839056,10.06875 L79.3966833,10.06875 C79.5105889,10.06875 79.5105889,10.06875 79.6222389,9.95625 C79.6222389,9.95625 79.7361444,9.842625 79.7361444,9.73125 L79.7361444,5.56875 C79.7361444,5.45625 79.7361444,5.45625 79.6222389,5.34375 C79.6211111,5.45625 79.5083333,5.45625 79.3955556,5.45625 Z" class="letter"></path> <path id="Shape" d="M88.7561111,5.34375 C84.1310944,5.34375 81.4255556,7.48125 81.0860944,11.19375 C81.0860944,11.30625 81.0860944,11.30625 81.2,11.41875 C81.2,11.41875 81.3127778,11.53125 81.4255556,11.53125 L85.7111111,11.53125 C85.8238889,11.53125 85.9366667,11.41875 85.9366667,11.30625 C86.1610944,9.957375 86.9505389,9.28125 88.41665,9.28125 C90.1083167,9.28125 90.7861111,9.957375 90.7861111,11.98125 L90.7861111,12.31875 L89.2072222,12.31875 C85.26,12.31875 80.4105556,13.33125 80.4105556,17.83125 C80.4105556,21.092625 82.5533333,23.00625 86.1622222,23.00625 C88.19335,23.00625 89.6594611,22.44375 90.7872389,21.20625 L90.7872389,22.44375 C90.7872389,22.55625 90.9000167,22.66875 91.0127944,22.66875 L95.41,22.66875 C95.5239056,22.66875 95.6355556,22.555125 95.6355556,22.44375 L95.6355556,11.86875 C95.8611111,7.48125 93.4927778,5.34375 88.7561111,5.34375 Z M90.8988889,16.59375 C90.8988889,18.16875 89.5455556,19.18125 87.6294611,19.18125 C86.2761278,19.18125 85.4866833,18.61875 85.4866833,17.49375 C85.4866833,16.03125 86.6144611,15.46875 89.3211278,15.46875 L90.7872389,15.46875 L90.7872389,16.59375 L90.8988889,16.59375 Z" class="letter"></path> <path id="Path" d="M103.755556,2.41875 L99.2444444,2.41875 C99.1305389,2.41875 99.0188889,2.53125 99.0188889,2.64375 L99.0188889,22.21875 C99.0188889,22.332375 99.1316667,22.44375 99.2444444,22.44375 L103.755556,22.44375 C103.868333,22.44375 103.981111,22.33125 103.981111,22.21875 L103.981111,2.75625 C103.981111,2.53125 103.868333,2.41875 103.755556,2.41875 Z" class="letter"></path> <path id="Shape" d="M155.295,5.34375 C150.106094,5.34375 146.385556,8.94375 146.385556,14.00625 L146.385556,14.23125 C146.385556,19.29375 149.994444,22.78125 155.295,22.78125 C160.482778,22.78125 164.203317,19.18125 164.203317,14.11875 L164.203317,13.89375 C164.204444,8.83125 160.482778,5.34375 155.295,5.34375 Z M159.016667,14.23125 C159.016667,17.15625 157.663333,18.95625 155.295,18.95625 C152.925539,18.95625 151.572206,17.26875 151.572206,14.23125 L151.572206,14.00625 C151.572206,11.08125 152.925539,9.39375 155.295,9.39375 C157.663333,9.39375 159.016667,11.08125 159.016667,14.117625 L159.016667,14.23125 Z" class="letter"></path> <path id="Path" d="M168.715556,0.05625 C167.249444,0.05625 166.121667,1.18125 166.121667,2.53125 C166.121667,3.88125 167.249444,5.00625 168.715556,5.00625 C170.181667,5.00625 171.309444,3.99375 171.309444,2.53125 C171.309444,1.06875 170.181667,0.05625 168.715556,0.05625 Z" class="letter"></path> <path id="Path" d="M170.971111,5.68125 L166.46,5.68125 C166.347222,5.68125 166.234444,5.794875 166.234444,5.90625 L166.234444,22.21875 C166.234444,22.332375 166.34835,22.44375 166.46,22.44375 L170.971111,22.44375 C171.085017,22.44375 171.196667,22.33125 171.196667,22.21875 L171.196667,5.90625 C171.309444,5.79375 171.083889,5.68125 170.971111,5.68125 Z" class="letter"></path> <path id="Path" d="M17.3677778,15.80625 L13.3077778,15.80625 C13.195,15.80625 13.0822222,15.919875 13.0822222,16.03125 C12.8566667,17.832375 11.7288889,18.957375 9.81279444,18.957375 C6.76779444,18.957375 6.09,16.36875 6.09,14.232375 L6.09,14.007375 C6.09,11.194875 7.44333333,9.394875 9.69888889,9.394875 C11.5044611,9.394875 12.4055556,10.18125 12.7438889,11.982375 C12.7438889,12.094875 12.8566667,12.207375 12.9694444,12.207375 L17.255,12.207375 L17.255,12.207375 C17.3677778,12.207375 17.4805556,12.09375 17.4805556,11.982375 C17.4805556,11.982375 17.4805556,11.982375 17.4805556,11.86875 C17.1422222,7.707375 14.21,5.34375 9.58611111,5.34375 C4.51111111,5.34375 0.902222222,8.94375 0.902222222,14.11875 L0.902222222,14.34375 C0.902222222,19.519875 4.28555556,22.894875 9.58611111,22.894875 C14.3227778,22.894875 17.36665,20.30625 17.7061111,16.144875 C17.7061111,16.03125 17.7061111,16.03125 17.5922056,15.919875 C17.4805556,15.80625 17.3677778,15.80625 17.3677778,15.80625 Z" class="letter"></path> <path id="Path" d="M48.4944444,5.34375 C46.3516667,5.34375 44.5472222,6.13125 43.4194444,7.59375 L43.4194444,5.90625 C43.4194444,5.79375 43.3055389,5.68125 43.1938889,5.68125 L38.6827778,5.68125 C38.57,5.68125 38.4572222,5.794875 38.4572222,5.90625 L38.4572222,22.21875 C38.4572222,22.332375 38.5711278,22.44375 38.6827778,22.44375 L43.1938889,22.44375 C43.3066667,22.44375 43.4194444,22.33125 43.4194444,22.21875 L43.4194444,12.76875 C43.4194444,10.742625 44.5472222,9.50625 46.5772222,9.50625 C48.3816667,9.50625 49.1711111,10.40625 49.1711111,12.54375 L49.1711111,22.21875 C49.1711111,22.332375 49.2850167,22.44375 49.3966667,22.44375 L53.9077778,22.44375 C54.0205556,22.44375 54.1333333,22.33125 54.1333333,22.21875 L54.1333333,11.86875 C54.2461111,7.70625 52.1033333,5.34375 48.4944444,5.34375 Z" class="letter"></path> <path id="Path" d="M201.985,9.39375 C202.098906,9.39375 202.210556,9.280125 202.210556,9.16875 L202.210556,5.90625 C202.210556,5.79375 202.097778,5.68125 201.985,5.68125 L198.714444,5.68125 L198.714444,2.75625 C198.714444,2.64375 198.600539,2.53125 198.488889,2.53125 L193.977778,2.53125 C193.863872,2.53125 193.752222,2.644875 193.752222,2.75625 L193.752222,5.68125 L192.398889,5.68125 C192.286111,5.68125 192.173333,5.794875 192.173333,5.90625 L192.173333,9.05625 C192.173333,9.169875 192.287239,9.28125 192.398889,9.28125 L193.752222,9.28125 L193.752222,17.269875 C193.752222,20.757375 195.669444,22.669875 199.278333,22.669875 C200.292206,22.669875 201.308333,22.55625 202.097778,22.219875 C202.210556,22.219875 202.322206,22.107375 202.322206,21.994875 L202.322206,18.507375 C202.322206,18.394875 202.322206,18.282375 202.209428,18.282375 C202.09665,18.282375 201.983872,18.169875 201.983872,18.282375 C201.533889,18.507375 200.97,18.619875 200.406111,18.619875 C199.391111,18.619875 198.827222,18.057375 198.827222,16.932375 L198.827222,9.39375 L201.985,9.39375 Z" class="letter"></path> <path id="Path" d="M66.0877778,5.68125 L62.8172222,5.68125 L62.8172222,2.75625 C62.8172222,2.64375 62.7033167,2.53125 62.5916667,2.53125 L58.0805556,2.53125 C57.96665,2.53125 57.855,2.644875 57.855,2.75625 L57.855,5.68125 L56.3888889,5.68125 C56.2749833,5.68125 56.1633333,5.794875 56.1633333,5.90625 L56.1633333,9.05625 C56.1633333,9.169875 56.2761111,9.28125 56.3888889,9.28125 L57.7422222,9.28125 L57.7422222,17.269875 C57.7422222,20.757375 59.6583167,22.669875 63.2672056,22.669875 C64.2822056,22.669875 65.2972056,22.55625 66.08665,22.219875 C66.2005556,22.219875 66.3122056,22.107375 66.3122056,21.994875 L66.3122056,18.507375 C66.3122056,18.394875 66.3122056,18.282375 66.1994278,18.282375 C66.0855222,18.282375 65.9738722,18.169875 65.9738722,18.282375 C65.5227611,18.507375 64.9588722,18.619875 64.3949833,18.619875 C63.3811111,18.619875 62.8172222,18.057375 62.8172222,16.932375 L62.8172222,9.39375 L66.0877778,9.39375 C66.2016833,9.39375 66.3133333,9.280125 66.3133333,9.16875 L66.3133333,5.90625 C66.4261111,5.79375 66.2005556,5.68125 66.0877778,5.68125 Z" class="letter"></path> <path id="Path" d="M184.504444,5.34375 C182.362794,5.34375 180.557222,6.13125 179.429444,7.59375 L179.429444,5.90625 C179.429444,5.79375 179.316667,5.68125 179.203889,5.68125 L174.692778,5.68125 C174.58,5.68125 174.46835,5.794875 174.46835,5.90625 L174.46835,22.21875 C174.46835,22.332375 174.581128,22.44375 174.692778,22.44375 L179.203889,22.44375 C179.317794,22.44375 179.429444,22.33125 179.429444,22.21875 L179.429444,12.76875 C179.429444,10.742625 180.557222,9.50625 182.587222,9.50625 C184.392794,9.50625 185.182239,10.40625 185.182239,12.54375 L185.182239,22.21875 C185.182239,22.332375 185.295017,22.44375 185.406667,22.44375 L189.917778,22.44375 C190.031683,22.44375 190.143333,22.33125 190.143333,22.21875 L190.143333,11.86875 C190.256111,7.70625 188.113333,5.34375 184.504444,5.34375 Z" class="letter"></path></svg>